<svg xmlns="http://www.w3.org/2000/svg" version="1.1" xmlns:xlink="http://www.w3.org/1999/xlink" xmlns:svgjs="http://svgjs.dev/svgjs" width="1000" height="623" viewBox="0 0 1000 623"><g transform="matrix(1,0,0,1,-0.6060606060606233,0.2522267206477409)"><svg viewBox="0 0 396 247" data-background-color="#ffffff" preserveAspectRatio="xMidYMid meet" height="623" width="1000" xmlns="http://www.w3.org/2000/svg" xmlns:xlink="http://www.w3.org/1999/xlink"><g id="tight-bounds" transform="matrix(1,0,0,1,0.2400000000000091,-0.09999999999999432)"><svg viewBox="0 0 395.52 247.2" height="247.2" width="395.52"><g><svg></svg></g><g><svg viewBox="0 0 395.52 247.2" height="247.2" width="395.52"><mask id="1a5d8557-b69c-4527-881e-358c7314c264"><rect width="640" height="400" fill="white"></rect><g transform="matrix(1,0,0,1,108.68275862068965,37.08)"><svg viewBox="0 0 178.15448275862067 173.04" height="173.04" width="178.15448275862067"><g><svg viewBox="0 0 178.15448275862067 173.04" height="173.04" width="178.15448275862067"><g><svg viewBox="0 0 178.1544827586207 173.04000000000002" height="173.04" width="178.15448275862067"><g><svg viewBox="0 0 178.1544827586207 173.04000000000002" height="173.04000000000002" width="178.1544827586207"><g id="SvgjsG1257"><svg viewBox="0 0 178.1544827586207 173.04000000000002" height="173.04000000000002" width="178.1544827586207" id="SvgjsSvg1256"><g><svg viewBox="0 0 178.1544827586207 173.04000000000002" height="173.04000000000002" width="178.1544827586207"><g transform="matrix(1,0,0,1,0,0)"><svg width="178.1544827586207" viewBox="-5.1 -37.3 42.800000000000004 41.599999999999994" height="173.04000000000002" data-palette-color="#8abe53"><path d="M12.1-8.2L17.55-27Q17.65-27.3 17.65-27.8L17.65-27.8Q17.65-28.6 17.23-29.1 16.8-29.6 15.9-30.2L15.9-30.2Q15.15-30.75 14.83-31.15 14.5-31.55 14.65-32.1L14.65-32.1Q14.8-32.8 15.4-33.05 16-33.3 17.3-33.3L17.3-33.3 31.5-33.3Q32.55-33.3 33.13-32.95 33.7-32.6 33.7-32.05L33.7-32.05Q33.7-31.8 33.55-31.4L33.55-31.4Q33.4-31.05 33.13-30.78 32.85-30.5 32.63-30.38 32.4-30.25 32.3-30.15L32.3-30.15Q31.5-29.7 31-29.15 30.5-28.6 30.15-27.45L30.15-27.45 25.25-10.15Q23.75-4.85 20.15-2.27 16.55 0.3 10.8 0.3L10.8 0.3Q6.95 0.3 4.28-0.83 1.6-1.95 0.25-3.85-1.1-5.75-1.1-8L-1.1-8Q-1.1-9.1-0.8-10.15L-0.8-10.15Q-0.15-12.4 1.43-13.55 3-14.7 4.95-14.7L4.95-14.7Q7.2-14.7 8.4-13.35 9.6-12 9.6-9.9L9.6-9.9Q9.6-8.85 9.3-7.8L9.3-7.8Q8.7-5.7 7.05-4.7L7.05-4.7Q7.85-4.2 8.9-4.2L8.9-4.2Q9.95-4.2 10.75-5.25 11.55-6.3 12.1-8.2L12.1-8.2Z" opacity="1" transform="matrix(1,0,0,1,0,0)" fill="black" class="wordmark-text-0" id="SvgjsPath1255" stroke-width="7" stroke="black" stroke-linejoin="round"></path></svg></g></svg></g></svg></g></svg></g></svg></g></svg></g></svg></g></mask><g transform="matrix(1,0,0,1,108.68275862068965,37.08)"><svg viewBox="0 0 178.15448275862067 173.04" height="173.04" width="178.15448275862067"><g><svg viewBox="0 0 178.15448275862067 173.04" height="173.04" width="178.15448275862067"><g><svg viewBox="0 0 178.1544827586207 173.04000000000002" height="173.04" width="178.15448275862067"><g><svg viewBox="0 0 178.1544827586207 173.04000000000002" height="173.04000000000002" width="178.1544827586207"><g id="textblocktransform"><svg viewBox="0 0 178.1544827586207 173.04000000000002" height="173.04000000000002" width="178.1544827586207" id="textblock"><g><svg viewBox="0 0 178.1544827586207 173.04000000000002" height="173.04000000000002" width="178.1544827586207"><g transform="matrix(1,0,0,1,0,0)"><svg width="178.1544827586207" viewBox="-5.1 -37.3 42.800000000000004 41.599999999999994" height="173.04000000000002" data-palette-color="#8abe53"><path d="M12.1-8.2L17.55-27Q17.65-27.3 17.65-27.8L17.65-27.8Q17.65-28.6 17.23-29.1 16.8-29.6 15.9-30.2L15.9-30.2Q15.15-30.75 14.83-31.15 14.5-31.55 14.65-32.1L14.65-32.1Q14.8-32.8 15.4-33.05 16-33.3 17.3-33.3L17.3-33.3 31.5-33.3Q32.55-33.3 33.13-32.95 33.7-32.6 33.7-32.05L33.7-32.05Q33.7-31.8 33.55-31.4L33.55-31.4Q33.4-31.05 33.13-30.78 32.85-30.5 32.63-30.38 32.4-30.25 32.3-30.15L32.3-30.15Q31.5-29.7 31-29.15 30.5-28.6 30.15-27.45L30.15-27.45 25.25-10.15Q23.75-4.85 20.15-2.27 16.55 0.3 10.8 0.3L10.8 0.3Q6.95 0.3 4.28-0.83 1.6-1.95 0.25-3.85-1.1-5.75-1.1-8L-1.1-8Q-1.1-9.1-0.8-10.15L-0.8-10.15Q-0.15-12.4 1.43-13.55 3-14.7 4.95-14.7L4.95-14.7Q7.2-14.7 8.4-13.35 9.6-12 9.6-9.9L9.6-9.9Q9.6-8.85 9.3-7.8L9.3-7.8Q8.7-5.7 7.05-4.7L7.05-4.7Q7.85-4.2 8.9-4.2L8.9-4.2Q9.95-4.2 10.75-5.25 11.55-6.3 12.1-8.2L12.1-8.2Z" opacity="1" transform="matrix(1,0,0,1,0,0)" fill="#8abe53" class="wordmark-text-0" data-fill-palette-color="primary" id="text-0"></path></svg></g></svg></g></svg></g></svg></g></svg></g></svg></g></svg></g><g mask="url(#1a5d8557-b69c-4527-881e-358c7314c264)"><g transform="matrix(3.516370050623108, 0, 0, 3.516370050623108, 113.46206077641223, 1)"><svg xmlns="http://www.w3.org/2000/svg" xmlns:xlink="http://www.w3.org/1999/xlink" version="1.1" x="0" y="0" viewBox="26.027 15.134999999999996 47.946 69.73100000000001" enable-background="new 0 0 100 100" xml:space="preserve" height="69.73100000000001" width="47.946" class="icon-none" data-fill-palette-color="accent" id="none"><g fill="#398378" data-fill-palette-color="accent"><path fill="#398378" d="M36.554 43.234c-5.805 0-10.527 4.723-10.527 10.528 0 5.805 4.723 10.527 10.527 10.527s10.527-4.723 10.527-10.527C47.081 47.957 42.358 43.234 36.554 43.234z" data-fill-palette-color="accent"></path><path fill="#398378" d="M63.445 42.178c-5.806 0-10.528 4.723-10.528 10.528 0 5.805 4.723 10.527 10.528 10.527 5.805 0 10.527-4.723 10.527-10.527C73.973 46.9 69.25 42.178 63.445 42.178z" data-fill-palette-color="accent"></path><path fill="#398378" d="M63.446 36.19c5.805 0 10.527-4.723 10.527-10.527 0-5.806-4.723-10.528-10.527-10.528-5.806 0-10.528 4.723-10.528 10.528C52.918 31.468 57.641 36.19 63.446 36.19z" data-fill-palette-color="accent"></path><path fill="#398378" d="M63.446 74.366c-2.603 0-4.721 2.117-4.721 4.72 0 2.604 2.118 4.722 4.721 4.722s4.721-2.118 4.721-4.722C68.167 76.483 66.049 74.366 63.446 74.366z" data-fill-palette-color="accent"></path><path fill="#398378" d="M36.554 75.424c-2.603 0-4.721 2.117-4.721 4.72 0 2.604 2.118 4.722 4.721 4.722s4.721-2.118 4.721-4.722C41.274 77.541 39.156 75.424 36.554 75.424z" data-fill-palette-color="accent"></path><path fill="#398378" d="M36.554 30.383c2.603 0 4.721-2.118 4.721-4.722 0-2.603-2.118-4.72-4.721-4.72s-4.721 2.117-4.721 4.72C31.833 28.265 33.951 30.383 36.554 30.383z" data-fill-palette-color="accent"></path></g></svg></g></g></svg></g><defs></defs></svg><rect width="395.52" height="247.2" fill="none" stroke="none" visibility="hidden"></rect></g></svg></g></svg>